<svg width="1920" height="1080" viewBox="0 0 1920 1080" fill="none" xmlns="http://www.w3.org/2000/svg">
<g clip-path="url(#clip0_1205_403)">
<rect width="1920" height="1080" fill="#A4CBF1"/>
<path d="M408.654 485.169L258.164 591.815C154.527 665.259 28.0031 699.134 -98.4665 687.299L-361.016 662.729C-375.211 661.4 -389.121 667.304 -398.027 678.436C-403.798 685.651 -407.052 694.555 -407.291 703.79L-408.586 753.69C-411.494 865.782 -317.57 956.199 -205.669 949.03L148.375 926.345L882.396 928.051C935.75 928.175 979.068 884.957 979.068 831.603V785.764C979.068 771.724 988.034 759.252 1001.34 754.78L1027.47 745.999C1054.16 737.032 1050.21 698.118 1022.26 694.7C1018.81 694.277 1015.31 694.541 1011.95 695.475L970.408 707.056C907.247 724.663 839.649 715.971 782.997 682.958L441.104 483.726C430.94 477.803 418.252 478.367 408.654 485.169Z" fill="url(#paint0_linear_1205_403)"/>
<path d="M413.35 481.841L258.164 591.815C154.527 665.259 28.0031 699.134 -98.4665 687.299L-361.016 662.729C-375.211 661.4 -389.121 667.304 -398.027 678.436C-403.798 685.651 -407.052 694.555 -407.291 703.79L-408.586 753.69C-411.494 865.782 -317.57 956.199 -205.669 949.03L122.519 928.002C135.235 927.187 145.01 939.074 141.753 951.393C138.1 965.21 150.7 977.837 164.525 974.213L441.715 901.563C449.018 899.649 456.008 896.694 462.469 892.789C523.377 855.981 508.046 763.663 438.511 748.517L393.431 738.697C323.334 723.429 293.437 640.028 337.87 583.704L416.015 484.647C417.414 482.875 415.192 480.536 413.35 481.841Z" fill="#9D9DBD"/>
<path d="M415.508 485.039L414.44 486.226L412.47 488.195C411.914 488.752 411.07 488.905 410.353 488.579C409.191 488.051 408.876 486.545 409.731 485.596L410.901 484.295C411.969 483.014 413.197 481.874 414.555 480.904L414.762 480.756C416.895 479.476 419.206 478.519 421.619 477.916L421.84 477.861L424.117 477.355C424.529 477.263 424.947 477.201 425.368 477.169L428.2 476.951C428.661 476.915 429.118 477.058 429.477 477.35L429.529 477.392C429.92 477.711 430.435 477.834 430.928 477.729L431.438 477.62C431.672 477.569 431.916 477.641 432.085 477.811L432.355 478.081C432.564 478.289 432.507 478.64 432.243 478.772C432.173 478.807 432.094 478.822 432.015 478.816L429.408 478.599C428.655 478.536 427.897 478.561 427.15 478.673L425.057 478.987C423.568 479.306 422.15 479.893 420.872 480.721L419.629 481.524C418.107 482.509 416.721 483.691 415.508 485.039Z" fill="#9D9DBD"/>
<path d="M407.498 483.537L257.008 590.183C153.761 663.351 27.7133 697.098 -98.2801 685.307L-360.83 660.737C-375.695 659.346 -390.262 665.529 -399.588 677.187C-405.632 684.742 -409.04 694.067 -409.291 703.738L-410.585 753.639C-413.524 866.906 -318.615 958.271 -205.541 951.026L148.436 928.345L882.392 930.051C936.852 930.177 981.068 886.064 981.068 831.603V785.764C981.068 772.583 989.485 760.875 1001.98 756.676L1028.11 747.895C1056.81 738.25 1052.56 696.392 1022.51 692.715C1018.79 692.26 1015.02 692.543 1011.42 693.548L969.871 705.13C907.23 722.592 840.19 713.971 784.004 681.23L442.111 481.998C431.27 475.68 417.736 476.282 407.498 483.537Z" stroke="#A4CBF1" stroke-width="4"/>
<path d="M1148.24 471.169L905.626 643.099C744.561 757.24 547.927 809.886 351.378 791.493L-56.6563 753.308C-78.7164 751.243 -100.334 760.418 -114.175 777.719C-123.145 788.931 -128.202 802.769 -128.574 817.123L-130.586 894.674C-135.105 1068.88 10.8645 1209.4 184.771 1198.25L735 1163L1875.76 1165.65C1958.68 1165.84 2026 1098.68 2026 1015.76V944.52C2026 922.7 2039.93 903.318 2060.62 896.367L2101.23 882.721C2142.7 868.785 2136.56 808.308 2093.13 802.995C2087.76 802.338 2082.32 802.747 2077.11 804.2L2012.54 822.199C1914.38 849.562 1809.33 836.053 1721.28 784.747L1180.69 469.726C1170.53 463.803 1157.84 464.367 1148.24 471.169Z" fill="url(#paint1_linear_1205_403)"/>
<path d="M1146.8 472.186L905.626 643.099C744.561 757.24 547.927 809.886 351.378 791.493L-56.6563 753.308C-78.7164 751.243 -100.334 760.418 -114.175 777.719C-123.145 788.931 -128.202 802.769 -128.574 817.123L-130.586 894.674C-135.105 1068.88 10.8645 1209.4 184.771 1198.25L694.817 1165.57C714.579 1164.31 729.77 1182.78 724.709 1201.93C719.032 1223.4 738.613 1243.02 760.099 1237.39L1190.89 1124.49C1202.24 1121.51 1213.1 1116.92 1223.14 1110.85C1317.8 1053.65 1293.97 910.173 1185.91 886.633L1115.85 871.373C1006.91 847.643 960.445 718.028 1029.5 630.493L1150.95 476.547C1153.12 473.792 1149.67 470.157 1146.8 472.186Z" fill="#D2D2FD"/>
<path d="M1150.16 477.156L1148.5 479L1145.44 482.061C1144.57 482.927 1143.26 483.165 1142.15 482.658C1140.34 481.837 1139.85 479.497 1141.18 478.022L1143 476C1144.66 474.008 1146.57 472.237 1148.68 470.73L1149 470.5C1152.32 468.511 1155.91 467.023 1159.66 466.086L1160 466L1163.54 465.214C1164.18 465.071 1164.83 464.975 1165.48 464.924L1169.88 464.586C1170.6 464.531 1171.31 464.753 1171.87 465.206L1171.95 465.272C1172.56 465.767 1173.36 465.959 1174.12 465.795L1174.92 465.625C1175.28 465.547 1175.66 465.659 1175.92 465.923L1176.34 466.342C1176.67 466.666 1176.58 467.211 1176.17 467.416C1176.06 467.471 1175.94 467.495 1175.81 467.484L1171.76 467.147C1170.59 467.049 1169.41 467.088 1168.25 467.262L1165 467.75C1162.69 468.246 1160.48 469.159 1158.49 470.445L1156.56 471.694C1154.2 473.225 1152.05 475.061 1150.16 477.156Z" fill="#D2D2FD"/>
<path d="M1147.66 470.353L905.048 642.284C744.178 756.286 547.782 808.868 351.471 790.497L-56.5631 752.312C-78.9584 750.216 -100.905 759.53 -114.956 777.095C-124.062 788.477 -129.196 802.525 -129.574 817.097L-131.586 894.648C-136.12 1069.44 10.3419 1210.43 184.835 1199.25L735.03 1164L1875.76 1166.65C1959.23 1166.84 2027 1099.23 2027 1015.76V944.52C2027 923.13 2040.66 904.129 2060.94 897.315L2101.55 883.669C2144.03 869.394 2137.74 807.444 2093.25 802.002C2087.75 801.329 2082.18 801.749 2076.84 803.236L2012.27 821.235C1914.37 848.526 1809.6 835.053 1721.78 783.883L1181.19 468.862C1170.69 462.741 1157.58 463.324 1147.66 470.353Z" stroke="url(#paint2_linear_1205_403)" stroke-width="2"/>
<path d="M923.839 870.876L925.374 872.259C926.539 873.309 928.237 873.539 929.491 872.597C930.739 871.659 932.069 870.471 933.258 869.278C934.678 867.852 934.62 865.076 935.232 863.16C935.514 862.278 936.059 859.522 935.173 859.253C935.108 859.233 935.045 859.217 934.986 859.203C934.719 859.141 934.446 859.093 934.176 859.049C933.125 858.879 930.968 859.075 928.275 860.895C927.409 861.48 924.021 865.581 923.651 866.559C923.577 866.757 923.502 866.962 923.428 867.175C922.909 868.667 922.94 869.572 923.115 870.063C923.238 870.409 923.566 870.63 923.839 870.876Z" fill="black" stroke="black" stroke-linecap="round"/>
<path d="M915 877L915.61 877.087C917.396 877.342 919.18 876.616 920.28 875.186L923.5 871" stroke="black" stroke-linecap="round"/>
<rect x="931" y="855" width="8" height="7" rx="3.5" fill="black"/>
<path d="M932.516 852.887C932.644 852.386 933.356 852.386 933.484 852.887L934.572 857.126C934.653 857.442 934.414 857.75 934.088 857.75H931.912C931.586 857.75 931.347 857.442 931.428 857.126L932.516 852.887Z" fill="black"/>
<path d="M936.516 852.887C936.644 852.386 937.356 852.386 937.484 852.887L938.572 857.126C938.653 857.442 938.414 857.75 938.088 857.75H935.912C935.586 857.75 935.347 857.442 935.428 857.126L936.516 852.887Z" fill="black"/>
<path d="M933 863L935 866.5" stroke="black" stroke-linecap="round"/>
<path d="M935 863L937 866.5" stroke="black" stroke-linecap="round"/>
<path d="M928 873L928.874 875.186C928.95 875.376 929.134 875.5 929.339 875.5H930.086C930.991 875.5 931.86 875.14 932.5 874.5V874.5" stroke="black" stroke-linecap="round"/>
<path d="M923.5 870L923.951 874.058C923.979 874.31 924.191 874.5 924.444 874.5H925.086C925.991 874.5 926.86 874.14 927.5 873.5V873.5" stroke="black" stroke-linecap="round"/>
<path d="M919.078 881.784L920.922 879.917" stroke="black" stroke-opacity="0.2" stroke-width="2" stroke-linecap="round"/>
<path d="M920.148 890.867L921.992 889" stroke="black" stroke-opacity="0.2" stroke-width="2" stroke-linecap="round"/>
<path d="M912.148 890.867L913.992 889" stroke="black" stroke-opacity="0.2" stroke-width="2" stroke-linecap="round"/>
<path d="M909.148 900.867L910.992 899" stroke="black" stroke-opacity="0.2" stroke-width="2" stroke-linecap="round"/>
</g>
<defs>
<linearGradient id="paint0_linear_1205_403" x1="358.14" y1="435.393" x2="654" y2="828" gradientUnits="userSpaceOnUse">
<stop stop-color="#F6F8FC"/>
<stop offset="1" stop-color="#D9E3F3"/>
</linearGradient>
<linearGradient id="paint1_linear_1205_403" x1="1061" y1="400" x2="1990" y2="1243" gradientUnits="userSpaceOnUse">
<stop stop-color="#F6F8FC"/>
<stop offset="1" stop-color="#D9E3F3"/>
</linearGradient>
<linearGradient id="paint2_linear_1205_403" x1="1216" y1="476" x2="858" y2="667" gradientUnits="userSpaceOnUse">
<stop stop-color="#A4CBF1"/>
<stop offset="1" stop-color="#A4CBF1" stop-opacity="0"/>
</linearGradient>
<clipPath id="clip0_1205_403">
<rect width="1920" height="1080" fill="white"/>
</clipPath>
</defs>
</svg>
