<svg width="1920" height="1080" viewBox="0 0 1920 1080" fill="none" xmlns="http://www.w3.org/2000/svg">
<g clip-path="url(#clip0_1205_428)">
<rect width="1920" height="1080" fill="#181D22"/>
<path d="M408.654 485.169L258.164 591.815C154.527 665.259 28.0031 699.134 -98.4665 687.299L-361.016 662.729C-375.211 661.4 -389.121 667.304 -398.027 678.436C-403.798 685.651 -407.052 694.555 -407.291 703.79L-408.586 753.69C-411.494 865.782 -317.57 956.199 -205.669 949.03L148.375 926.345L882.396 928.051C935.75 928.175 979.068 884.957 979.068 831.603V785.764C979.068 771.724 988.034 759.252 1001.34 754.78L1027.47 745.999C1054.16 737.032 1050.21 698.118 1022.26 694.7C1018.81 694.277 1015.31 694.541 1011.95 695.475L970.408 707.056C907.247 724.663 839.649 715.971 782.997 682.958L441.104 483.726C430.94 477.803 418.252 478.367 408.654 485.169Z" fill="url(#paint0_linear_1205_428)"/>
<path d="M413.35 481.841L258.164 591.815C154.527 665.259 28.0031 699.134 -98.4665 687.299L-361.016 662.729C-375.211 661.4 -389.121 667.304 -398.027 678.436C-403.798 685.651 -407.052 694.555 -407.291 703.79L-408.586 753.69C-411.494 865.782 -317.57 956.199 -205.669 949.03L122.519 928.002C135.235 927.187 145.01 939.074 141.753 951.393C138.1 965.21 150.7 977.837 164.525 974.213L441.715 901.563C449.018 899.649 456.008 896.694 462.469 892.789C523.377 855.981 508.046 763.663 438.511 748.517L393.431 738.697C323.334 723.429 293.437 640.028 337.87 583.704L416.015 484.647C417.414 482.875 415.192 480.536 413.35 481.841Z" fill="#2E3A46"/>
<path d="M415.509 485.039L414.441 486.226L412.471 488.195C411.915 488.752 411.071 488.905 410.354 488.579C409.192 488.051 408.877 486.545 409.732 485.596L410.902 484.295C411.97 483.014 413.198 481.874 414.556 480.904L414.763 480.756C416.896 479.476 419.207 478.519 421.62 477.916L421.841 477.861L424.118 477.355C424.53 477.263 424.948 477.201 425.369 477.169L428.201 476.951C428.662 476.915 429.119 477.058 429.478 477.35L429.53 477.392C429.921 477.711 430.436 477.834 430.929 477.729L431.439 477.62C431.673 477.569 431.917 477.641 432.086 477.811L432.356 478.081C432.565 478.289 432.508 478.64 432.244 478.772C432.174 478.807 432.094 478.822 432.016 478.816L429.409 478.599C428.656 478.536 427.898 478.561 427.151 478.673L425.058 478.987C423.569 479.306 422.151 479.893 420.872 480.721L419.63 481.524C418.108 482.509 416.722 483.691 415.509 485.039Z" fill="#2E3A46"/>
<path d="M407.498 483.537L257.008 590.183C153.761 663.351 27.7133 697.098 -98.2801 685.307L-360.83 660.737C-375.695 659.346 -390.262 665.529 -399.588 677.187C-405.632 684.742 -409.04 694.066 -409.291 703.738L-410.585 753.638C-413.524 866.906 -318.615 958.271 -205.541 951.026L148.436 928.345L882.391 930.051C936.852 930.177 981.068 886.064 981.068 831.603V785.764C981.068 772.583 989.485 760.875 1001.98 756.676L1028.11 747.895C1056.81 738.25 1052.56 696.392 1022.51 692.715C1018.79 692.26 1015.02 692.543 1011.42 693.548L969.871 705.13C907.23 722.592 840.19 713.971 784.004 681.23L442.111 481.998C431.27 475.68 417.736 476.282 407.498 483.537Z" stroke="#181D22" stroke-width="4"/>
<path d="M1148.24 471.169L905.626 643.099C744.561 757.24 547.927 809.886 351.378 791.493L-56.6563 753.308C-78.7164 751.243 -100.334 760.418 -114.175 777.719C-123.145 788.931 -128.202 802.769 -128.574 817.123L-130.586 894.674C-135.105 1068.88 10.8645 1209.4 184.771 1198.25L735 1163L1875.76 1165.65C1958.68 1165.84 2026 1098.68 2026 1015.76V944.52C2026 922.7 2039.93 903.318 2060.62 896.367L2101.23 882.721C2142.7 868.785 2136.56 808.308 2093.13 802.995C2087.76 802.338 2082.32 802.747 2077.11 804.2L2012.54 822.199C1914.38 849.562 1809.33 836.053 1721.28 784.747L1180.69 469.726C1170.53 463.803 1157.84 464.367 1148.24 471.169Z" fill="url(#paint1_linear_1205_428)"/>
<path d="M1146.8 472.186L905.626 643.099C744.561 757.24 547.927 809.886 351.378 791.493L-56.6563 753.308C-78.7164 751.243 -100.334 760.418 -114.175 777.719C-123.145 788.931 -128.202 802.769 -128.574 817.123L-130.586 894.674C-135.105 1068.88 10.8645 1209.4 184.771 1198.25L694.817 1165.57C714.579 1164.31 729.77 1182.78 724.709 1201.93C719.032 1223.4 738.613 1243.02 760.099 1237.39L1190.89 1124.49C1202.24 1121.51 1213.1 1116.92 1223.14 1110.85C1317.8 1053.65 1293.97 910.173 1185.91 886.633L1115.85 871.373C1006.91 847.643 960.445 718.028 1029.5 630.493L1150.95 476.547C1153.12 473.792 1149.67 470.157 1146.8 472.186Z" fill="#2D2D3D"/>
<path d="M1150.16 477.156L1148.5 479L1145.44 482.061C1144.57 482.927 1143.26 483.165 1142.15 482.658C1140.34 481.837 1139.85 479.497 1141.18 478.022L1143 476C1144.66 474.008 1146.57 472.237 1148.68 470.73L1149 470.5C1152.32 468.511 1155.91 467.023 1159.66 466.086L1160 466L1163.54 465.214C1164.18 465.071 1164.83 464.975 1165.48 464.924L1169.88 464.586C1170.6 464.531 1171.31 464.753 1171.87 465.206L1171.95 465.272C1172.56 465.767 1173.36 465.959 1174.12 465.795L1174.92 465.625C1175.28 465.547 1175.66 465.659 1175.92 465.923L1176.34 466.342C1176.67 466.666 1176.58 467.211 1176.17 467.416C1176.06 467.471 1175.94 467.495 1175.81 467.484L1171.76 467.147C1170.59 467.049 1169.41 467.088 1168.25 467.262L1165 467.75C1162.69 468.246 1160.48 469.159 1158.49 470.445L1156.56 471.694C1154.2 473.225 1152.05 475.061 1150.16 477.156Z" fill="#2D2D3D"/>
<path d="M1147.66 470.353L905.048 642.284C744.178 756.286 547.782 808.868 351.471 790.497L-56.5631 752.312C-78.9584 750.216 -100.905 759.53 -114.956 777.095C-124.062 788.477 -129.196 802.525 -129.574 817.097L-131.586 894.648C-136.12 1069.44 10.3419 1210.43 184.835 1199.25L735.03 1164L1875.76 1166.65C1959.23 1166.84 2027 1099.23 2027 1015.76V944.52C2027 923.13 2040.66 904.129 2060.94 897.315L2101.55 883.669C2144.03 869.394 2137.74 807.444 2093.25 802.002C2087.75 801.329 2082.18 801.749 2076.84 803.236L2012.27 821.235C1914.37 848.526 1809.6 835.053 1721.78 783.883L1181.19 468.862C1170.69 462.741 1157.58 463.324 1147.66 470.353Z" stroke="url(#paint2_linear_1205_428)" stroke-width="2"/>
<path d="M923.839 870.876L925.374 872.259C926.539 873.309 928.237 873.539 929.491 872.597C930.739 871.659 932.069 870.471 933.258 869.278C934.678 867.852 934.62 865.076 935.232 863.16C935.514 862.278 936.059 859.522 935.173 859.253C935.108 859.233 935.045 859.217 934.986 859.203C934.719 859.141 934.446 859.093 934.176 859.049C933.125 858.879 930.968 859.075 928.275 860.895C927.409 861.48 924.021 865.581 923.651 866.559C923.577 866.757 923.502 866.962 923.428 867.175C922.909 868.667 922.94 869.572 923.115 870.063C923.238 870.409 923.566 870.63 923.839 870.876Z" fill="#668CAF" stroke="#668CAF" stroke-linecap="round"/>
<path d="M915 877L915.61 877.087C917.396 877.342 919.18 876.616 920.28 875.186L923.5 871" stroke="#668CAF" stroke-linecap="round"/>
<rect x="931" y="855" width="8" height="7" rx="3.5" fill="#668CAF"/>
<path d="M932.516 852.887C932.644 852.386 933.356 852.386 933.484 852.887L934.572 857.126C934.653 857.442 934.414 857.75 934.088 857.75H931.912C931.586 857.75 931.347 857.442 931.428 857.126L932.516 852.887Z" fill="#668CAF"/>
<path d="M936.516 852.887C936.644 852.386 937.356 852.386 937.484 852.887L938.572 857.126C938.653 857.442 938.414 857.75 938.088 857.75H935.912C935.586 857.75 935.347 857.442 935.428 857.126L936.516 852.887Z" fill="#668CAF"/>
<path d="M933 863L935 866.5" stroke="#668CAF" stroke-linecap="round"/>
<path d="M935 863L937 866.5" stroke="#668CAF" stroke-linecap="round"/>
<path d="M928 873L928.874 875.186C928.95 875.376 929.134 875.5 929.339 875.5H930.086C930.991 875.5 931.86 875.14 932.5 874.5V874.5" stroke="#668CAF" stroke-linecap="round"/>
<path d="M923.5 870L923.951 874.058C923.979 874.31 924.191 874.5 924.444 874.5H925.086C925.991 874.5 926.86 874.14 927.5 873.5V873.5" stroke="#668CAF" stroke-linecap="round"/>
<path d="M919.078 881.784L920.922 879.917" stroke="black" stroke-opacity="0.2" stroke-width="2" stroke-linecap="round"/>
<path d="M920.148 890.867L921.992 889" stroke="black" stroke-opacity="0.2" stroke-width="2" stroke-linecap="round"/>
<path d="M912.148 890.867L913.992 889" stroke="black" stroke-opacity="0.2" stroke-width="2" stroke-linecap="round"/>
<path d="M909.148 900.867L910.992 899" stroke="black" stroke-opacity="0.2" stroke-width="2" stroke-linecap="round"/>
<g filter="url(#filter0_i_1205_428)">
<circle cx="1559" cy="99" r="40" fill="#22282E"/>
</g>
<g filter="url(#filter1_d_1205_428)">
<path d="M531 148L531.239 150.491L532.236 148.196L531.694 150.639L533.351 148.764L532.08 150.92L534.236 149.649L532.361 151.306L534.804 150.764L532.509 151.761L535 152L532.509 152.239L534.804 153.236L532.361 152.694L534.236 154.351L532.08 153.08L533.351 155.236L531.694 153.361L532.236 155.804L531.239 153.509L531 156L530.761 153.509L529.764 155.804L530.306 153.361L528.649 155.236L529.92 153.08L527.764 154.351L529.639 152.694L527.196 153.236L529.491 152.239L527 152L529.491 151.761L527.196 150.764L529.639 151.306L527.764 149.649L529.92 150.92L528.649 148.764L530.306 150.639L529.764 148.196L530.761 150.491L531 148Z" fill="white" fill-opacity="0.28" shape-rendering="crispEdges"/>
</g>
<g filter="url(#filter2_d_1205_428)">
<path d="M723 34L723.239 36.4909L724.236 34.1958L723.694 36.6387L725.351 34.7639L724.08 36.9196L726.236 35.6489L724.361 37.3064L726.804 36.7639L724.509 37.761L727 38L724.509 38.239L726.804 39.2361L724.361 38.6936L726.236 40.3511L724.08 39.0804L725.351 41.2361L723.694 39.3613L724.236 41.8042L723.239 39.5091L723 42L722.761 39.5091L721.764 41.8042L722.306 39.3613L720.649 41.2361L721.92 39.0804L719.764 40.3511L721.639 38.6936L719.196 39.2361L721.491 38.239L719 38L721.491 37.761L719.196 36.7639L721.639 37.3064L719.764 35.6489L721.92 36.9196L720.649 34.7639L722.306 36.6387L721.764 34.1958L722.761 36.4909L723 34Z" fill="white" fill-opacity="0.28" shape-rendering="crispEdges"/>
</g>
<g filter="url(#filter3_d_1205_428)">
<path d="M400 290L400.239 292.491L401.236 290.196L400.694 292.639L402.351 290.764L401.08 292.92L403.236 291.649L401.361 293.306L403.804 292.764L401.509 293.761L404 294L401.509 294.239L403.804 295.236L401.361 294.694L403.236 296.351L401.08 295.08L402.351 297.236L400.694 295.361L401.236 297.804L400.239 295.509L400 298L399.761 295.509L398.764 297.804L399.306 295.361L397.649 297.236L398.92 295.08L396.764 296.351L398.639 294.694L396.196 295.236L398.491 294.239L396 294L398.491 293.761L396.196 292.764L398.639 293.306L396.764 291.649L398.92 292.92L397.649 290.764L399.306 292.639L398.764 290.196L399.761 292.491L400 290Z" fill="white" fill-opacity="0.28" shape-rendering="crispEdges"/>
</g>
<g filter="url(#filter4_d_1205_428)">
<path d="M90 267L90.239 269.491L91.2361 267.196L90.6936 269.639L92.3511 267.764L91.0804 269.92L93.2361 268.649L91.3613 270.306L93.8042 269.764L91.5091 270.761L94 271L91.5091 271.239L93.8042 272.236L91.3613 271.694L93.2361 273.351L91.0804 272.08L92.3511 274.236L90.6936 272.361L91.2361 274.804L90.239 272.509L90 275L89.761 272.509L88.7639 274.804L89.3064 272.361L87.6489 274.236L88.9196 272.08L86.7639 273.351L88.6387 271.694L86.1958 272.236L88.4909 271.239L86 271L88.4909 270.761L86.1958 269.764L88.6387 270.306L86.7639 268.649L88.9196 269.92L87.6489 267.764L89.3064 269.639L88.7639 267.196L89.761 269.491L90 267Z" fill="white" fill-opacity="0.28" shape-rendering="crispEdges"/>
</g>
<g filter="url(#filter5_d_1205_428)">
<path d="M39 20L39.239 22.4909L40.2361 20.1958L39.6936 22.6387L41.3511 20.7639L40.0804 22.9196L42.2361 21.6489L40.3613 23.3064L42.8042 22.7639L40.5091 23.761L43 24L40.5091 24.239L42.8042 25.2361L40.3613 24.6936L42.2361 26.3511L40.0804 25.0804L41.3511 27.2361L39.6936 25.3613L40.2361 27.8042L39.239 25.5091L39 28L38.761 25.5091L37.7639 27.8042L38.3064 25.3613L36.6489 27.2361L37.9196 25.0804L35.7639 26.3511L37.6387 24.6936L35.1958 25.2361L37.4909 24.239L35 24L37.4909 23.761L35.1958 22.7639L37.6387 23.3064L35.7639 21.6489L37.9196 22.9196L36.6489 20.7639L38.3064 22.6387L37.7639 20.1958L38.761 22.4909L39 20Z" fill="white" fill-opacity="0.28" shape-rendering="crispEdges"/>
</g>
<g filter="url(#filter6_d_1205_428)">
<path d="M327 63L327.239 65.4909L328.236 63.1958L327.694 65.6387L329.351 63.7639L328.08 65.9196L330.236 64.6489L328.361 66.3064L330.804 65.7639L328.509 66.761L331 67L328.509 67.239L330.804 68.2361L328.361 67.6936L330.236 69.3511L328.08 68.0804L329.351 70.2361L327.694 68.3613L328.236 70.8042L327.239 68.5091L327 71L326.761 68.5091L325.764 70.8042L326.306 68.3613L324.649 70.2361L325.92 68.0804L323.764 69.3511L325.639 67.6936L323.196 68.2361L325.491 67.239L323 67L325.491 66.761L323.196 65.7639L325.639 66.3064L323.764 64.6489L325.92 65.9196L324.649 63.7639L326.306 65.6387L325.764 63.1958L326.761 65.4909L327 63Z" fill="white" fill-opacity="0.28" shape-rendering="crispEdges"/>
</g>
<g filter="url(#filter7_d_1205_428)">
<path d="M440 210L440.239 212.491L441.236 210.196L440.694 212.639L442.351 210.764L441.08 212.92L443.236 211.649L441.361 213.306L443.804 212.764L441.509 213.761L444 214L441.509 214.239L443.804 215.236L441.361 214.694L443.236 216.351L441.08 215.08L442.351 217.236L440.694 215.361L441.236 217.804L440.239 215.509L440 218L439.761 215.509L438.764 217.804L439.306 215.361L437.649 217.236L438.92 215.08L436.764 216.351L438.639 214.694L436.196 215.236L438.491 214.239L436 214L438.491 213.761L436.196 212.764L438.639 213.306L436.764 211.649L438.92 212.92L437.649 210.764L439.306 212.639L438.764 210.196L439.761 212.491L440 210Z" fill="white" fill-opacity="0.28" shape-rendering="crispEdges"/>
</g>
<g filter="url(#filter8_d_1205_428)">
<path d="M280 178L280.239 180.491L281.236 178.196L280.694 180.639L282.351 178.764L281.08 180.92L283.236 179.649L281.361 181.306L283.804 180.764L281.509 181.761L284 182L281.509 182.239L283.804 183.236L281.361 182.694L283.236 184.351L281.08 183.08L282.351 185.236L280.694 183.361L281.236 185.804L280.239 183.509L280 186L279.761 183.509L278.764 185.804L279.306 183.361L277.649 185.236L278.92 183.08L276.764 184.351L278.639 182.694L276.196 183.236L278.491 182.239L276 182L278.491 181.761L276.196 180.764L278.639 181.306L276.764 179.649L278.92 180.92L277.649 178.764L279.306 180.639L278.764 178.196L279.761 180.491L280 178Z" fill="white" fill-opacity="0.28" shape-rendering="crispEdges"/>
</g>
<g filter="url(#filter9_d_1205_428)">
<path d="M926 156L926.239 158.491L927.236 156.196L926.694 158.639L928.351 156.764L927.08 158.92L929.236 157.649L927.361 159.306L929.804 158.764L927.509 159.761L930 160L927.509 160.239L929.804 161.236L927.361 160.694L929.236 162.351L927.08 161.08L928.351 163.236L926.694 161.361L927.236 163.804L926.239 161.509L926 164L925.761 161.509L924.764 163.804L925.306 161.361L923.649 163.236L924.92 161.08L922.764 162.351L924.639 160.694L922.196 161.236L924.491 160.239L922 160L924.491 159.761L922.196 158.764L924.639 159.306L922.764 157.649L924.92 158.92L923.649 156.764L925.306 158.639L924.764 156.196L925.761 158.491L926 156Z" fill="white" fill-opacity="0.28" shape-rendering="crispEdges"/>
</g>
<g filter="url(#filter10_d_1205_428)">
<path d="M938 12L938.239 14.4909L939.236 12.1958L938.694 14.6387L940.351 12.7639L939.08 14.9196L941.236 13.6489L939.361 15.3064L941.804 14.7639L939.509 15.761L942 16L939.509 16.239L941.804 17.2361L939.361 16.6936L941.236 18.3511L939.08 17.0804L940.351 19.2361L938.694 17.3613L939.236 19.8042L938.239 17.5091L938 20L937.761 17.5091L936.764 19.8042L937.306 17.3613L935.649 19.2361L936.92 17.0804L934.764 18.3511L936.639 16.6936L934.196 17.2361L936.491 16.239L934 16L936.491 15.761L934.196 14.7639L936.639 15.3064L934.764 13.6489L936.92 14.9196L935.649 12.7639L937.306 14.6387L936.764 12.1958L937.761 14.4909L938 12Z" fill="white" fill-opacity="0.28" shape-rendering="crispEdges"/>
</g>
<g filter="url(#filter11_d_1205_428)">
<path d="M1572 607L1572.24 609.491L1573.24 607.196L1572.69 609.639L1574.35 607.764L1573.08 609.92L1575.24 608.649L1573.36 610.306L1575.8 609.764L1573.51 610.761L1576 611L1573.51 611.239L1575.8 612.236L1573.36 611.694L1575.24 613.351L1573.08 612.08L1574.35 614.236L1572.69 612.361L1573.24 614.804L1572.24 612.509L1572 615L1571.76 612.509L1570.76 614.804L1571.31 612.361L1569.65 614.236L1570.92 612.08L1568.76 613.351L1570.64 611.694L1568.2 612.236L1570.49 611.239L1568 611L1570.49 610.761L1568.2 609.764L1570.64 610.306L1568.76 608.649L1570.92 609.92L1569.65 607.764L1571.31 609.639L1570.76 607.196L1571.76 609.491L1572 607Z" fill="white" fill-opacity="0.28" shape-rendering="crispEdges"/>
</g>
<g filter="url(#filter12_d_1205_428)">
<path d="M1359 433L1359.24 435.491L1360.24 433.196L1359.69 435.639L1361.35 433.764L1360.08 435.92L1362.24 434.649L1360.36 436.306L1362.8 435.764L1360.51 436.761L1363 437L1360.51 437.239L1362.8 438.236L1360.36 437.694L1362.24 439.351L1360.08 438.08L1361.35 440.236L1359.69 438.361L1360.24 440.804L1359.24 438.509L1359 441L1358.76 438.509L1357.76 440.804L1358.31 438.361L1356.65 440.236L1357.92 438.08L1355.76 439.351L1357.64 437.694L1355.2 438.236L1357.49 437.239L1355 437L1357.49 436.761L1355.2 435.764L1357.64 436.306L1355.76 434.649L1357.92 435.92L1356.65 433.764L1358.31 435.639L1357.76 433.196L1358.76 435.491L1359 433Z" fill="white" fill-opacity="0.28" shape-rendering="crispEdges"/>
</g>
<g filter="url(#filter13_d_1205_428)">
<path d="M1595 307L1595.24 309.491L1596.24 307.196L1595.69 309.639L1597.35 307.764L1596.08 309.92L1598.24 308.649L1596.36 310.306L1598.8 309.764L1596.51 310.761L1599 311L1596.51 311.239L1598.8 312.236L1596.36 311.694L1598.24 313.351L1596.08 312.08L1597.35 314.236L1595.69 312.361L1596.24 314.804L1595.24 312.509L1595 315L1594.76 312.509L1593.76 314.804L1594.31 312.361L1592.65 314.236L1593.92 312.08L1591.76 313.351L1593.64 311.694L1591.2 312.236L1593.49 311.239L1591 311L1593.49 310.761L1591.2 309.764L1593.64 310.306L1591.76 308.649L1593.92 309.92L1592.65 307.764L1594.31 309.639L1593.76 307.196L1594.76 309.491L1595 307Z" fill="white" fill-opacity="0.28" shape-rendering="crispEdges"/>
</g>
<g filter="url(#filter14_d_1205_428)">
<path d="M1426 73L1426.24 75.4909L1427.24 73.1958L1426.69 75.6387L1428.35 73.7639L1427.08 75.9196L1429.24 74.6489L1427.36 76.3064L1429.8 75.7639L1427.51 76.761L1430 77L1427.51 77.239L1429.8 78.2361L1427.36 77.6936L1429.24 79.3511L1427.08 78.0804L1428.35 80.2361L1426.69 78.3613L1427.24 80.8042L1426.24 78.5091L1426 81L1425.76 78.5091L1424.76 80.8042L1425.31 78.3613L1423.65 80.2361L1424.92 78.0804L1422.76 79.3511L1424.64 77.6936L1422.2 78.2361L1424.49 77.239L1422 77L1424.49 76.761L1422.2 75.7639L1424.64 76.3064L1422.76 74.6489L1424.92 75.9196L1423.65 73.7639L1425.31 75.6387L1424.76 73.1958L1425.76 75.4909L1426 73Z" fill="white" fill-opacity="0.28" shape-rendering="crispEdges"/>
</g>
<g filter="url(#filter15_d_1205_428)">
<path d="M1205 357L1205.24 359.491L1206.24 357.196L1205.69 359.639L1207.35 357.764L1206.08 359.92L1208.24 358.649L1206.36 360.306L1208.8 359.764L1206.51 360.761L1209 361L1206.51 361.239L1208.8 362.236L1206.36 361.694L1208.24 363.351L1206.08 362.08L1207.35 364.236L1205.69 362.361L1206.24 364.804L1205.24 362.509L1205 365L1204.76 362.509L1203.76 364.804L1204.31 362.361L1202.65 364.236L1203.92 362.08L1201.76 363.351L1203.64 361.694L1201.2 362.236L1203.49 361.239L1201 361L1203.49 360.761L1201.2 359.764L1203.64 360.306L1201.76 358.649L1203.92 359.92L1202.65 357.764L1204.31 359.639L1203.76 357.196L1204.76 359.491L1205 357Z" fill="white" fill-opacity="0.28" shape-rendering="crispEdges"/>
</g>
<g filter="url(#filter16_d_1205_428)">
<path d="M1258 206L1258.24 208.491L1259.24 206.196L1258.69 208.639L1260.35 206.764L1259.08 208.92L1261.24 207.649L1259.36 209.306L1261.8 208.764L1259.51 209.761L1262 210L1259.51 210.239L1261.8 211.236L1259.36 210.694L1261.24 212.351L1259.08 211.08L1260.35 213.236L1258.69 211.361L1259.24 213.804L1258.24 211.509L1258 214L1257.76 211.509L1256.76 213.804L1257.31 211.361L1255.65 213.236L1256.92 211.08L1254.76 212.351L1256.64 210.694L1254.2 211.236L1256.49 210.239L1254 210L1256.49 209.761L1254.2 208.764L1256.64 209.306L1254.76 207.649L1256.92 208.92L1255.65 206.764L1257.31 208.639L1256.76 206.196L1257.76 208.491L1258 206Z" fill="white" fill-opacity="0.28" shape-rendering="crispEdges"/>
</g>
<g filter="url(#filter17_d_1205_428)">
<path d="M1840 146L1840.24 148.491L1841.24 146.196L1840.69 148.639L1842.35 146.764L1841.08 148.92L1843.24 147.649L1841.36 149.306L1843.8 148.764L1841.51 149.761L1844 150L1841.51 150.239L1843.8 151.236L1841.36 150.694L1843.24 152.351L1841.08 151.08L1842.35 153.236L1840.69 151.361L1841.24 153.804L1840.24 151.509L1840 154L1839.76 151.509L1838.76 153.804L1839.31 151.361L1837.65 153.236L1838.92 151.08L1836.76 152.351L1838.64 150.694L1836.2 151.236L1838.49 150.239L1836 150L1838.49 149.761L1836.2 148.764L1838.64 149.306L1836.76 147.649L1838.92 148.92L1837.65 146.764L1839.31 148.639L1838.76 146.196L1839.76 148.491L1840 146Z" fill="white" fill-opacity="0.28" shape-rendering="crispEdges"/>
</g>
<g filter="url(#filter18_d_1205_428)">
<path d="M1765 481L1765.24 483.491L1766.24 481.196L1765.69 483.639L1767.35 481.764L1766.08 483.92L1768.24 482.649L1766.36 484.306L1768.8 483.764L1766.51 484.761L1769 485L1766.51 485.239L1768.8 486.236L1766.36 485.694L1768.24 487.351L1766.08 486.08L1767.35 488.236L1765.69 486.361L1766.24 488.804L1765.24 486.509L1765 489L1764.76 486.509L1763.76 488.804L1764.31 486.361L1762.65 488.236L1763.92 486.08L1761.76 487.351L1763.64 485.694L1761.2 486.236L1763.49 485.239L1761 485L1763.49 484.761L1761.2 483.764L1763.64 484.306L1761.76 482.649L1763.92 483.92L1762.65 481.764L1764.31 483.639L1763.76 481.196L1764.76 483.491L1765 481Z" fill="white" fill-opacity="0.28" shape-rendering="crispEdges"/>
</g>
<g filter="url(#filter19_d_1205_428)">
<path d="M1563 398L1563.24 400.491L1564.24 398.196L1563.69 400.639L1565.35 398.764L1564.08 400.92L1566.24 399.649L1564.36 401.306L1566.8 400.764L1564.51 401.761L1567 402L1564.51 402.239L1566.8 403.236L1564.36 402.694L1566.24 404.351L1564.08 403.08L1565.35 405.236L1563.69 403.361L1564.24 405.804L1563.24 403.509L1563 406L1562.76 403.509L1561.76 405.804L1562.31 403.361L1560.65 405.236L1561.92 403.08L1559.76 404.351L1561.64 402.694L1559.2 403.236L1561.49 402.239L1559 402L1561.49 401.761L1559.2 400.764L1561.64 401.306L1559.76 399.649L1561.92 400.92L1560.65 398.764L1562.31 400.639L1561.76 398.196L1562.76 400.491L1563 398Z" fill="white" fill-opacity="0.28" shape-rendering="crispEdges"/>
</g>
<g filter="url(#filter20_d_1205_428)">
<path d="M1885 286L1885.24 288.491L1886.24 286.196L1885.69 288.639L1887.35 286.764L1886.08 288.92L1888.24 287.649L1886.36 289.306L1888.8 288.764L1886.51 289.761L1889 290L1886.51 290.239L1888.8 291.236L1886.36 290.694L1888.24 292.351L1886.08 291.08L1887.35 293.236L1885.69 291.361L1886.24 293.804L1885.24 291.509L1885 294L1884.76 291.509L1883.76 293.804L1884.31 291.361L1882.65 293.236L1883.92 291.08L1881.76 292.351L1883.64 290.694L1881.2 291.236L1883.49 290.239L1881 290L1883.49 289.761L1881.2 288.764L1883.64 289.306L1881.76 287.649L1883.92 288.92L1882.65 286.764L1884.31 288.639L1883.76 286.196L1884.76 288.491L1885 286Z" fill="white" fill-opacity="0.28" shape-rendering="crispEdges"/>
</g>
<g filter="url(#filter21_d_1205_428)">
<path d="M1418 259L1418.24 261.491L1419.24 259.196L1418.69 261.639L1420.35 259.764L1419.08 261.92L1421.24 260.649L1419.36 262.306L1421.8 261.764L1419.51 262.761L1422 263L1419.51 263.239L1421.8 264.236L1419.36 263.694L1421.24 265.351L1419.08 264.08L1420.35 266.236L1418.69 264.361L1419.24 266.804L1418.24 264.509L1418 267L1417.76 264.509L1416.76 266.804L1417.31 264.361L1415.65 266.236L1416.92 264.08L1414.76 265.351L1416.64 263.694L1414.2 264.236L1416.49 263.239L1414 263L1416.49 262.761L1414.2 261.764L1416.64 262.306L1414.76 260.649L1416.92 261.92L1415.65 259.764L1417.31 261.639L1416.76 259.196L1417.76 261.491L1418 259Z" fill="white" fill-opacity="0.28" shape-rendering="crispEdges"/>
</g>
<g filter="url(#filter22_d_1205_428)">
<path d="M1893 761L1893.24 763.491L1894.24 761.196L1893.69 763.639L1895.35 761.764L1894.08 763.92L1896.24 762.649L1894.36 764.306L1896.8 763.764L1894.51 764.761L1897 765L1894.51 765.239L1896.8 766.236L1894.36 765.694L1896.24 767.351L1894.08 766.08L1895.35 768.236L1893.69 766.361L1894.24 768.804L1893.24 766.509L1893 769L1892.76 766.509L1891.76 768.804L1892.31 766.361L1890.65 768.236L1891.92 766.08L1889.76 767.351L1891.64 765.694L1889.2 766.236L1891.49 765.239L1889 765L1891.49 764.761L1889.2 763.764L1891.64 764.306L1889.76 762.649L1891.92 763.92L1890.65 761.764L1892.31 763.639L1891.76 761.196L1892.76 763.491L1893 761Z" fill="white" fill-opacity="0.28" shape-rendering="crispEdges"/>
</g>
<g filter="url(#filter23_d_1205_428)">
<path d="M760 99L760.239 101.491L761.236 99.1958L760.694 101.639L762.351 99.7639L761.08 101.92L763.236 100.649L761.361 102.306L763.804 101.764L761.509 102.761L764 103L761.509 103.239L763.804 104.236L761.361 103.694L763.236 105.351L761.08 104.08L762.351 106.236L760.694 104.361L761.236 106.804L760.239 104.509L760 107L759.761 104.509L758.764 106.804L759.306 104.361L757.649 106.236L758.92 104.08L756.764 105.351L758.639 103.694L756.196 104.236L758.491 103.239L756 103L758.491 102.761L756.196 101.764L758.639 102.306L756.764 100.649L758.92 101.92L757.649 99.7639L759.306 101.639L758.764 99.1958L759.761 101.491L760 99Z" fill="white" fill-opacity="0.28" shape-rendering="crispEdges"/>
</g>
<g filter="url(#filter24_d_1205_428)">
<path d="M640 477L640.239 479.491L641.236 477.196L640.694 479.639L642.351 477.764L641.08 479.92L643.236 478.649L641.361 480.306L643.804 479.764L641.509 480.761L644 481L641.509 481.239L643.804 482.236L641.361 481.694L643.236 483.351L641.08 482.08L642.351 484.236L640.694 482.361L641.236 484.804L640.239 482.509L640 485L639.761 482.509L638.764 484.804L639.306 482.361L637.649 484.236L638.92 482.08L636.764 483.351L638.639 481.694L636.196 482.236L638.491 481.239L636 481L638.491 480.761L636.196 479.764L638.639 480.306L636.764 478.649L638.92 479.92L637.649 477.764L639.306 479.639L638.764 477.196L639.761 479.491L640 477Z" fill="white" fill-opacity="0.28" shape-rendering="crispEdges"/>
</g>
<g filter="url(#filter25_d_1205_428)">
<path d="M812 570L812.239 572.491L813.236 570.196L812.694 572.639L814.351 570.764L813.08 572.92L815.236 571.649L813.361 573.306L815.804 572.764L813.509 573.761L816 574L813.509 574.239L815.804 575.236L813.361 574.694L815.236 576.351L813.08 575.08L814.351 577.236L812.694 575.361L813.236 577.804L812.239 575.509L812 578L811.761 575.509L810.764 577.804L811.306 575.361L809.649 577.236L810.92 575.08L808.764 576.351L810.639 574.694L808.196 575.236L810.491 574.239L808 574L810.491 573.761L808.196 572.764L810.639 573.306L808.764 571.649L810.92 572.92L809.649 570.764L811.306 572.639L810.764 570.196L811.761 572.491L812 570Z" fill="white" fill-opacity="0.28" shape-rendering="crispEdges"/>
</g>
<g filter="url(#filter26_d_1205_428)">
<path d="M790 394L790.239 396.491L791.236 394.196L790.694 396.639L792.351 394.764L791.08 396.92L793.236 395.649L791.361 397.306L793.804 396.764L791.509 397.761L794 398L791.509 398.239L793.804 399.236L791.361 398.694L793.236 400.351L791.08 399.08L792.351 401.236L790.694 399.361L791.236 401.804L790.239 399.509L790 402L789.761 399.509L788.764 401.804L789.306 399.361L787.649 401.236L788.92 399.08L786.764 400.351L788.639 398.694L786.196 399.236L788.491 398.239L786 398L788.491 397.761L786.196 396.764L788.639 397.306L786.764 395.649L788.92 396.92L787.649 394.764L789.306 396.639L788.764 394.196L789.761 396.491L790 394Z" fill="white" fill-opacity="0.28" shape-rendering="crispEdges"/>
</g>
<g filter="url(#filter27_d_1205_428)">
<path d="M459 390L459.239 392.491L460.236 390.196L459.694 392.639L461.351 390.764L460.08 392.92L462.236 391.649L460.361 393.306L462.804 392.764L460.509 393.761L463 394L460.509 394.239L462.804 395.236L460.361 394.694L462.236 396.351L460.08 395.08L461.351 397.236L459.694 395.361L460.236 397.804L459.239 395.509L459 398L458.761 395.509L457.764 397.804L458.306 395.361L456.649 397.236L457.92 395.08L455.764 396.351L457.639 394.694L455.196 395.236L457.491 394.239L455 394L457.491 393.761L455.196 392.764L457.639 393.306L455.764 391.649L457.92 392.92L456.649 390.764L458.306 392.639L457.764 390.196L458.761 392.491L459 390Z" fill="white" fill-opacity="0.28" shape-rendering="crispEdges"/>
</g>
<g filter="url(#filter28_d_1205_428)">
<path d="M632 225L632.239 227.491L633.236 225.196L632.694 227.639L634.351 225.764L633.08 227.92L635.236 226.649L633.361 228.306L635.804 227.764L633.509 228.761L636 229L633.509 229.239L635.804 230.236L633.361 229.694L635.236 231.351L633.08 230.08L634.351 232.236L632.694 230.361L633.236 232.804L632.239 230.509L632 233L631.761 230.509L630.764 232.804L631.306 230.361L629.649 232.236L630.92 230.08L628.764 231.351L630.639 229.694L628.196 230.236L630.491 229.239L628 229L630.491 228.761L628.196 227.764L630.639 228.306L628.764 226.649L630.92 227.92L629.649 225.764L631.306 227.639L630.764 225.196L631.761 227.491L632 225Z" fill="white" fill-opacity="0.28" shape-rendering="crispEdges"/>
</g>
<g filter="url(#filter29_d_1205_428)">
<path d="M236 460L236.239 462.491L237.236 460.196L236.694 462.639L238.351 460.764L237.08 462.92L239.236 461.649L237.361 463.306L239.804 462.764L237.509 463.761L240 464L237.509 464.239L239.804 465.236L237.361 464.694L239.236 466.351L237.08 465.08L238.351 467.236L236.694 465.361L237.236 467.804L236.239 465.509L236 468L235.761 465.509L234.764 467.804L235.306 465.361L233.649 467.236L234.92 465.08L232.764 466.351L234.639 464.694L232.196 465.236L234.491 464.239L232 464L234.491 463.761L232.196 462.764L234.639 463.306L232.764 461.649L234.92 462.92L233.649 460.764L235.306 462.639L234.764 460.196L235.761 462.491L236 460Z" fill="white" fill-opacity="0.28" shape-rendering="crispEdges"/>
</g>
<g filter="url(#filter30_d_1205_428)">
<path d="M60 570L60.239 572.491L61.2361 570.196L60.6936 572.639L62.3511 570.764L61.0804 572.92L63.2361 571.649L61.3613 573.306L63.8042 572.764L61.5091 573.761L64 574L61.5091 574.239L63.8042 575.236L61.3613 574.694L63.2361 576.351L61.0804 575.08L62.3511 577.236L60.6936 575.361L61.2361 577.804L60.239 575.509L60 578L59.761 575.509L58.7639 577.804L59.3064 575.361L57.6489 577.236L58.9196 575.08L56.7639 576.351L58.6387 574.694L56.1958 575.236L58.4909 574.239L56 574L58.4909 573.761L56.1958 572.764L58.6387 573.306L56.7639 571.649L58.9196 572.92L57.6489 570.764L59.3064 572.639L58.7639 570.196L59.761 572.491L60 570Z" fill="white" fill-opacity="0.28" shape-rendering="crispEdges"/>
</g>
<g filter="url(#filter31_d_1205_428)">
<path d="M113 460L113.239 462.491L114.236 460.196L113.694 462.639L115.351 460.764L114.08 462.92L116.236 461.649L114.361 463.306L116.804 462.764L114.509 463.761L117 464L114.509 464.239L116.804 465.236L114.361 464.694L116.236 466.351L114.08 465.08L115.351 467.236L113.694 465.361L114.236 467.804L113.239 465.509L113 468L112.761 465.509L111.764 467.804L112.306 465.361L110.649 467.236L111.92 465.08L109.764 466.351L111.639 464.694L109.196 465.236L111.491 464.239L109 464L111.491 463.761L109.196 462.764L111.639 463.306L109.764 461.649L111.92 462.92L110.649 460.764L112.306 462.639L111.764 460.196L112.761 462.491L113 460Z" fill="white" fill-opacity="0.28" shape-rendering="crispEdges"/>
</g>
</g>
<defs>
<filter id="filter0_i_1205_428" x="1519" y="55" width="84" height="84" filterUnits="userSpaceOnUse" color-interpolation-filters="sRGB">
<feFlood flood-opacity="0" result="BackgroundImageFix"/>
<feBlend mode="normal" in="SourceGraphic" in2="BackgroundImageFix" result="shape"/>
<feColorMatrix in="SourceAlpha" type="matrix" values="0 0 0 0 0 0 0 0 0 0 0 0 0 0 0 0 0 0 127 0" result="hardAlpha"/>
<feOffset dx="15" dy="-10"/>
<feGaussianBlur stdDeviation="2"/>
<feComposite in2="hardAlpha" operator="arithmetic" k2="-1" k3="1"/>
<feColorMatrix type="matrix" values="0 0 0 0 0.475 0 0 0 0 0.475 0 0 0 0 0.475 0 0 0 0.25 0"/>
<feBlend mode="normal" in2="shape" result="effect1_innerShadow_1205_428"/>
</filter>
<filter id="filter1_d_1205_428" x="517" y="138" width="28" height="28" filterUnits="userSpaceOnUse" color-interpolation-filters="sRGB">
<feFlood flood-opacity="0" result="BackgroundImageFix"/>
<feColorMatrix in="SourceAlpha" type="matrix" values="0 0 0 0 0 0 0 0 0 0 0 0 0 0 0 0 0 0 127 0" result="hardAlpha"/>
<feOffset/>
<feGaussianBlur stdDeviation="5"/>
<feComposite in2="hardAlpha" operator="out"/>
<feColorMatrix type="matrix" values="0 0 0 0 1 0 0 0 0 1 0 0 0 0 1 0 0 0 0.8 0"/>
<feBlend mode="normal" in2="BackgroundImageFix" result="effect1_dropShadow_1205_428"/>
<feBlend mode="normal" in="SourceGraphic" in2="effect1_dropShadow_1205_428" result="shape"/>
</filter>
<filter id="filter2_d_1205_428" x="709" y="24" width="28" height="28" filterUnits="userSpaceOnUse" color-interpolation-filters="sRGB">
<feFlood flood-opacity="0" result="BackgroundImageFix"/>
<feColorMatrix in="SourceAlpha" type="matrix" values="0 0 0 0 0 0 0 0 0 0 0 0 0 0 0 0 0 0 127 0" result="hardAlpha"/>
<feOffset/>
<feGaussianBlur stdDeviation="5"/>
<feComposite in2="hardAlpha" operator="out"/>
<feColorMatrix type="matrix" values="0 0 0 0 1 0 0 0 0 1 0 0 0 0 1 0 0 0 0.8 0"/>
<feBlend mode="normal" in2="BackgroundImageFix" result="effect1_dropShadow_1205_428"/>
<feBlend mode="normal" in="SourceGraphic" in2="effect1_dropShadow_1205_428" result="shape"/>
</filter>
<filter id="filter3_d_1205_428" x="386" y="280" width="28" height="28" filterUnits="userSpaceOnUse" color-interpolation-filters="sRGB">
<feFlood flood-opacity="0" result="BackgroundImageFix"/>
<feColorMatrix in="SourceAlpha" type="matrix" values="0 0 0 0 0 0 0 0 0 0 0 0 0 0 0 0 0 0 127 0" result="hardAlpha"/>
<feOffset/>
<feGaussianBlur stdDeviation="5"/>
<feComposite in2="hardAlpha" operator="out"/>
<feColorMatrix type="matrix" values="0 0 0 0 1 0 0 0 0 1 0 0 0 0 1 0 0 0 0.8 0"/>
<feBlend mode="normal" in2="BackgroundImageFix" result="effect1_dropShadow_1205_428"/>
<feBlend mode="normal" in="SourceGraphic" in2="effect1_dropShadow_1205_428" result="shape"/>
</filter>
<filter id="filter4_d_1205_428" x="76" y="257" width="28" height="28" filterUnits="userSpaceOnUse" color-interpolation-filters="sRGB">
<feFlood flood-opacity="0" result="BackgroundImageFix"/>
<feColorMatrix in="SourceAlpha" type="matrix" values="0 0 0 0 0 0 0 0 0 0 0 0 0 0 0 0 0 0 127 0" result="hardAlpha"/>
<feOffset/>
<feGaussianBlur stdDeviation="5"/>
<feComposite in2="hardAlpha" operator="out"/>
<feColorMatrix type="matrix" values="0 0 0 0 1 0 0 0 0 1 0 0 0 0 1 0 0 0 0.8 0"/>
<feBlend mode="normal" in2="BackgroundImageFix" result="effect1_dropShadow_1205_428"/>
<feBlend mode="normal" in="SourceGraphic" in2="effect1_dropShadow_1205_428" result="shape"/>
</filter>
<filter id="filter5_d_1205_428" x="25" y="10" width="28" height="28" filterUnits="userSpaceOnUse" color-interpolation-filters="sRGB">
<feFlood flood-opacity="0" result="BackgroundImageFix"/>
<feColorMatrix in="SourceAlpha" type="matrix" values="0 0 0 0 0 0 0 0 0 0 0 0 0 0 0 0 0 0 127 0" result="hardAlpha"/>
<feOffset/>
<feGaussianBlur stdDeviation="5"/>
<feComposite in2="hardAlpha" operator="out"/>
<feColorMatrix type="matrix" values="0 0 0 0 1 0 0 0 0 1 0 0 0 0 1 0 0 0 0.8 0"/>
<feBlend mode="normal" in2="BackgroundImageFix" result="effect1_dropShadow_1205_428"/>
<feBlend mode="normal" in="SourceGraphic" in2="effect1_dropShadow_1205_428" result="shape"/>
</filter>
<filter id="filter6_d_1205_428" x="313" y="53" width="28" height="28" filterUnits="userSpaceOnUse" color-interpolation-filters="sRGB">
<feFlood flood-opacity="0" result="BackgroundImageFix"/>
<feColorMatrix in="SourceAlpha" type="matrix" values="0 0 0 0 0 0 0 0 0 0 0 0 0 0 0 0 0 0 127 0" result="hardAlpha"/>
<feOffset/>
<feGaussianBlur stdDeviation="5"/>
<feComposite in2="hardAlpha" operator="out"/>
<feColorMatrix type="matrix" values="0 0 0 0 1 0 0 0 0 1 0 0 0 0 1 0 0 0 0.8 0"/>
<feBlend mode="normal" in2="BackgroundImageFix" result="effect1_dropShadow_1205_428"/>
<feBlend mode="normal" in="SourceGraphic" in2="effect1_dropShadow_1205_428" result="shape"/>
</filter>
<filter id="filter7_d_1205_428" x="426" y="200" width="28" height="28" filterUnits="userSpaceOnUse" color-interpolation-filters="sRGB">
<feFlood flood-opacity="0" result="BackgroundImageFix"/>
<feColorMatrix in="SourceAlpha" type="matrix" values="0 0 0 0 0 0 0 0 0 0 0 0 0 0 0 0 0 0 127 0" result="hardAlpha"/>
<feOffset/>
<feGaussianBlur stdDeviation="5"/>
<feComposite in2="hardAlpha" operator="out"/>
<feColorMatrix type="matrix" values="0 0 0 0 1 0 0 0 0 1 0 0 0 0 1 0 0 0 0.8 0"/>
<feBlend mode="normal" in2="BackgroundImageFix" result="effect1_dropShadow_1205_428"/>
<feBlend mode="normal" in="SourceGraphic" in2="effect1_dropShadow_1205_428" result="shape"/>
</filter>
<filter id="filter8_d_1205_428" x="266" y="168" width="28" height="28" filterUnits="userSpaceOnUse" color-interpolation-filters="sRGB">
<feFlood flood-opacity="0" result="BackgroundImageFix"/>
<feColorMatrix in="SourceAlpha" type="matrix" values="0 0 0 0 0 0 0 0 0 0 0 0 0 0 0 0 0 0 127 0" result="hardAlpha"/>
<feOffset/>
<feGaussianBlur stdDeviation="5"/>
<feComposite in2="hardAlpha" operator="out"/>
<feColorMatrix type="matrix" values="0 0 0 0 1 0 0 0 0 1 0 0 0 0 1 0 0 0 0.8 0"/>
<feBlend mode="normal" in2="BackgroundImageFix" result="effect1_dropShadow_1205_428"/>
<feBlend mode="normal" in="SourceGraphic" in2="effect1_dropShadow_1205_428" result="shape"/>
</filter>
<filter id="filter9_d_1205_428" x="912" y="146" width="28" height="28" filterUnits="userSpaceOnUse" color-interpolation-filters="sRGB">
<feFlood flood-opacity="0" result="BackgroundImageFix"/>
<feColorMatrix in="SourceAlpha" type="matrix" values="0 0 0 0 0 0 0 0 0 0 0 0 0 0 0 0 0 0 127 0" result="hardAlpha"/>
<feOffset/>
<feGaussianBlur stdDeviation="5"/>
<feComposite in2="hardAlpha" operator="out"/>
<feColorMatrix type="matrix" values="0 0 0 0 1 0 0 0 0 1 0 0 0 0 1 0 0 0 0.8 0"/>
<feBlend mode="normal" in2="BackgroundImageFix" result="effect1_dropShadow_1205_428"/>
<feBlend mode="normal" in="SourceGraphic" in2="effect1_dropShadow_1205_428" result="shape"/>
</filter>
<filter id="filter10_d_1205_428" x="924" y="2" width="28" height="28" filterUnits="userSpaceOnUse" color-interpolation-filters="sRGB">
<feFlood flood-opacity="0" result="BackgroundImageFix"/>
<feColorMatrix in="SourceAlpha" type="matrix" values="0 0 0 0 0 0 0 0 0 0 0 0 0 0 0 0 0 0 127 0" result="hardAlpha"/>
<feOffset/>
<feGaussianBlur stdDeviation="5"/>
<feComposite in2="hardAlpha" operator="out"/>
<feColorMatrix type="matrix" values="0 0 0 0 1 0 0 0 0 1 0 0 0 0 1 0 0 0 0.8 0"/>
<feBlend mode="normal" in2="BackgroundImageFix" result="effect1_dropShadow_1205_428"/>
<feBlend mode="normal" in="SourceGraphic" in2="effect1_dropShadow_1205_428" result="shape"/>
</filter>
<filter id="filter11_d_1205_428" x="1558" y="597" width="28" height="28" filterUnits="userSpaceOnUse" color-interpolation-filters="sRGB">
<feFlood flood-opacity="0" result="BackgroundImageFix"/>
<feColorMatrix in="SourceAlpha" type="matrix" values="0 0 0 0 0 0 0 0 0 0 0 0 0 0 0 0 0 0 127 0" result="hardAlpha"/>
<feOffset/>
<feGaussianBlur stdDeviation="5"/>
<feComposite in2="hardAlpha" operator="out"/>
<feColorMatrix type="matrix" values="0 0 0 0 1 0 0 0 0 1 0 0 0 0 1 0 0 0 0.8 0"/>
<feBlend mode="normal" in2="BackgroundImageFix" result="effect1_dropShadow_1205_428"/>
<feBlend mode="normal" in="SourceGraphic" in2="effect1_dropShadow_1205_428" result="shape"/>
</filter>
<filter id="filter12_d_1205_428" x="1345" y="423" width="28" height="28" filterUnits="userSpaceOnUse" color-interpolation-filters="sRGB">
<feFlood flood-opacity="0" result="BackgroundImageFix"/>
<feColorMatrix in="SourceAlpha" type="matrix" values="0 0 0 0 0 0 0 0 0 0 0 0 0 0 0 0 0 0 127 0" result="hardAlpha"/>
<feOffset/>
<feGaussianBlur stdDeviation="5"/>
<feComposite in2="hardAlpha" operator="out"/>
<feColorMatrix type="matrix" values="0 0 0 0 1 0 0 0 0 1 0 0 0 0 1 0 0 0 0.8 0"/>
<feBlend mode="normal" in2="BackgroundImageFix" result="effect1_dropShadow_1205_428"/>
<feBlend mode="normal" in="SourceGraphic" in2="effect1_dropShadow_1205_428" result="shape"/>
</filter>
<filter id="filter13_d_1205_428" x="1581" y="297" width="28" height="28" filterUnits="userSpaceOnUse" color-interpolation-filters="sRGB">
<feFlood flood-opacity="0" result="BackgroundImageFix"/>
<feColorMatrix in="SourceAlpha" type="matrix" values="0 0 0 0 0 0 0 0 0 0 0 0 0 0 0 0 0 0 127 0" result="hardAlpha"/>
<feOffset/>
<feGaussianBlur stdDeviation="5"/>
<feComposite in2="hardAlpha" operator="out"/>
<feColorMatrix type="matrix" values="0 0 0 0 1 0 0 0 0 1 0 0 0 0 1 0 0 0 0.8 0"/>
<feBlend mode="normal" in2="BackgroundImageFix" result="effect1_dropShadow_1205_428"/>
<feBlend mode="normal" in="SourceGraphic" in2="effect1_dropShadow_1205_428" result="shape"/>
</filter>
<filter id="filter14_d_1205_428" x="1412" y="63" width="28" height="28" filterUnits="userSpaceOnUse" color-interpolation-filters="sRGB">
<feFlood flood-opacity="0" result="BackgroundImageFix"/>
<feColorMatrix in="SourceAlpha" type="matrix" values="0 0 0 0 0 0 0 0 0 0 0 0 0 0 0 0 0 0 127 0" result="hardAlpha"/>
<feOffset/>
<feGaussianBlur stdDeviation="5"/>
<feComposite in2="hardAlpha" operator="out"/>
<feColorMatrix type="matrix" values="0 0 0 0 1 0 0 0 0 1 0 0 0 0 1 0 0 0 0.8 0"/>
<feBlend mode="normal" in2="BackgroundImageFix" result="effect1_dropShadow_1205_428"/>
<feBlend mode="normal" in="SourceGraphic" in2="effect1_dropShadow_1205_428" result="shape"/>
</filter>
<filter id="filter15_d_1205_428" x="1191" y="347" width="28" height="28" filterUnits="userSpaceOnUse" color-interpolation-filters="sRGB">
<feFlood flood-opacity="0" result="BackgroundImageFix"/>
<feColorMatrix in="SourceAlpha" type="matrix" values="0 0 0 0 0 0 0 0 0 0 0 0 0 0 0 0 0 0 127 0" result="hardAlpha"/>
<feOffset/>
<feGaussianBlur stdDeviation="5"/>
<feComposite in2="hardAlpha" operator="out"/>
<feColorMatrix type="matrix" values="0 0 0 0 1 0 0 0 0 1 0 0 0 0 1 0 0 0 0.8 0"/>
<feBlend mode="normal" in2="BackgroundImageFix" result="effect1_dropShadow_1205_428"/>
<feBlend mode="normal" in="SourceGraphic" in2="effect1_dropShadow_1205_428" result="shape"/>
</filter>
<filter id="filter16_d_1205_428" x="1244" y="196" width="28" height="28" filterUnits="userSpaceOnUse" color-interpolation-filters="sRGB">
<feFlood flood-opacity="0" result="BackgroundImageFix"/>
<feColorMatrix in="SourceAlpha" type="matrix" values="0 0 0 0 0 0 0 0 0 0 0 0 0 0 0 0 0 0 127 0" result="hardAlpha"/>
<feOffset/>
<feGaussianBlur stdDeviation="5"/>
<feComposite in2="hardAlpha" operator="out"/>
<feColorMatrix type="matrix" values="0 0 0 0 1 0 0 0 0 1 0 0 0 0 1 0 0 0 0.8 0"/>
<feBlend mode="normal" in2="BackgroundImageFix" result="effect1_dropShadow_1205_428"/>
<feBlend mode="normal" in="SourceGraphic" in2="effect1_dropShadow_1205_428" result="shape"/>
</filter>
<filter id="filter17_d_1205_428" x="1826" y="136" width="28" height="28" filterUnits="userSpaceOnUse" color-interpolation-filters="sRGB">
<feFlood flood-opacity="0" result="BackgroundImageFix"/>
<feColorMatrix in="SourceAlpha" type="matrix" values="0 0 0 0 0 0 0 0 0 0 0 0 0 0 0 0 0 0 127 0" result="hardAlpha"/>
<feOffset/>
<feGaussianBlur stdDeviation="5"/>
<feComposite in2="hardAlpha" operator="out"/>
<feColorMatrix type="matrix" values="0 0 0 0 1 0 0 0 0 1 0 0 0 0 1 0 0 0 0.8 0"/>
<feBlend mode="normal" in2="BackgroundImageFix" result="effect1_dropShadow_1205_428"/>
<feBlend mode="normal" in="SourceGraphic" in2="effect1_dropShadow_1205_428" result="shape"/>
</filter>
<filter id="filter18_d_1205_428" x="1751" y="471" width="28" height="28" filterUnits="userSpaceOnUse" color-interpolation-filters="sRGB">
<feFlood flood-opacity="0" result="BackgroundImageFix"/>
<feColorMatrix in="SourceAlpha" type="matrix" values="0 0 0 0 0 0 0 0 0 0 0 0 0 0 0 0 0 0 127 0" result="hardAlpha"/>
<feOffset/>
<feGaussianBlur stdDeviation="5"/>
<feComposite in2="hardAlpha" operator="out"/>
<feColorMatrix type="matrix" values="0 0 0 0 1 0 0 0 0 1 0 0 0 0 1 0 0 0 0.8 0"/>
<feBlend mode="normal" in2="BackgroundImageFix" result="effect1_dropShadow_1205_428"/>
<feBlend mode="normal" in="SourceGraphic" in2="effect1_dropShadow_1205_428" result="shape"/>
</filter>
<filter id="filter19_d_1205_428" x="1549" y="388" width="28" height="28" filterUnits="userSpaceOnUse" color-interpolation-filters="sRGB">
<feFlood flood-opacity="0" result="BackgroundImageFix"/>
<feColorMatrix in="SourceAlpha" type="matrix" values="0 0 0 0 0 0 0 0 0 0 0 0 0 0 0 0 0 0 127 0" result="hardAlpha"/>
<feOffset/>
<feGaussianBlur stdDeviation="5"/>
<feComposite in2="hardAlpha" operator="out"/>
<feColorMatrix type="matrix" values="0 0 0 0 1 0 0 0 0 1 0 0 0 0 1 0 0 0 0.8 0"/>
<feBlend mode="normal" in2="BackgroundImageFix" result="effect1_dropShadow_1205_428"/>
<feBlend mode="normal" in="SourceGraphic" in2="effect1_dropShadow_1205_428" result="shape"/>
</filter>
<filter id="filter20_d_1205_428" x="1871" y="276" width="28" height="28" filterUnits="userSpaceOnUse" color-interpolation-filters="sRGB">
<feFlood flood-opacity="0" result="BackgroundImageFix"/>
<feColorMatrix in="SourceAlpha" type="matrix" values="0 0 0 0 0 0 0 0 0 0 0 0 0 0 0 0 0 0 127 0" result="hardAlpha"/>
<feOffset/>
<feGaussianBlur stdDeviation="5"/>
<feComposite in2="hardAlpha" operator="out"/>
<feColorMatrix type="matrix" values="0 0 0 0 1 0 0 0 0 1 0 0 0 0 1 0 0 0 0.8 0"/>
<feBlend mode="normal" in2="BackgroundImageFix" result="effect1_dropShadow_1205_428"/>
<feBlend mode="normal" in="SourceGraphic" in2="effect1_dropShadow_1205_428" result="shape"/>
</filter>
<filter id="filter21_d_1205_428" x="1404" y="249" width="28" height="28" filterUnits="userSpaceOnUse" color-interpolation-filters="sRGB">
<feFlood flood-opacity="0" result="BackgroundImageFix"/>
<feColorMatrix in="SourceAlpha" type="matrix" values="0 0 0 0 0 0 0 0 0 0 0 0 0 0 0 0 0 0 127 0" result="hardAlpha"/>
<feOffset/>
<feGaussianBlur stdDeviation="5"/>
<feComposite in2="hardAlpha" operator="out"/>
<feColorMatrix type="matrix" values="0 0 0 0 1 0 0 0 0 1 0 0 0 0 1 0 0 0 0.8 0"/>
<feBlend mode="normal" in2="BackgroundImageFix" result="effect1_dropShadow_1205_428"/>
<feBlend mode="normal" in="SourceGraphic" in2="effect1_dropShadow_1205_428" result="shape"/>
</filter>
<filter id="filter22_d_1205_428" x="1879" y="751" width="28" height="28" filterUnits="userSpaceOnUse" color-interpolation-filters="sRGB">
<feFlood flood-opacity="0" result="BackgroundImageFix"/>
<feColorMatrix in="SourceAlpha" type="matrix" values="0 0 0 0 0 0 0 0 0 0 0 0 0 0 0 0 0 0 127 0" result="hardAlpha"/>
<feOffset/>
<feGaussianBlur stdDeviation="5"/>
<feComposite in2="hardAlpha" operator="out"/>
<feColorMatrix type="matrix" values="0 0 0 0 1 0 0 0 0 1 0 0 0 0 1 0 0 0 0.8 0"/>
<feBlend mode="normal" in2="BackgroundImageFix" result="effect1_dropShadow_1205_428"/>
<feBlend mode="normal" in="SourceGraphic" in2="effect1_dropShadow_1205_428" result="shape"/>
</filter>
<filter id="filter23_d_1205_428" x="746" y="89" width="28" height="28" filterUnits="userSpaceOnUse" color-interpolation-filters="sRGB">
<feFlood flood-opacity="0" result="BackgroundImageFix"/>
<feColorMatrix in="SourceAlpha" type="matrix" values="0 0 0 0 0 0 0 0 0 0 0 0 0 0 0 0 0 0 127 0" result="hardAlpha"/>
<feOffset/>
<feGaussianBlur stdDeviation="5"/>
<feComposite in2="hardAlpha" operator="out"/>
<feColorMatrix type="matrix" values="0 0 0 0 1 0 0 0 0 1 0 0 0 0 1 0 0 0 0.8 0"/>
<feBlend mode="normal" in2="BackgroundImageFix" result="effect1_dropShadow_1205_428"/>
<feBlend mode="normal" in="SourceGraphic" in2="effect1_dropShadow_1205_428" result="shape"/>
</filter>
<filter id="filter24_d_1205_428" x="626" y="467" width="28" height="28" filterUnits="userSpaceOnUse" color-interpolation-filters="sRGB">
<feFlood flood-opacity="0" result="BackgroundImageFix"/>
<feColorMatrix in="SourceAlpha" type="matrix" values="0 0 0 0 0 0 0 0 0 0 0 0 0 0 0 0 0 0 127 0" result="hardAlpha"/>
<feOffset/>
<feGaussianBlur stdDeviation="5"/>
<feComposite in2="hardAlpha" operator="out"/>
<feColorMatrix type="matrix" values="0 0 0 0 1 0 0 0 0 1 0 0 0 0 1 0 0 0 0.8 0"/>
<feBlend mode="normal" in2="BackgroundImageFix" result="effect1_dropShadow_1205_428"/>
<feBlend mode="normal" in="SourceGraphic" in2="effect1_dropShadow_1205_428" result="shape"/>
</filter>
<filter id="filter25_d_1205_428" x="798" y="560" width="28" height="28" filterUnits="userSpaceOnUse" color-interpolation-filters="sRGB">
<feFlood flood-opacity="0" result="BackgroundImageFix"/>
<feColorMatrix in="SourceAlpha" type="matrix" values="0 0 0 0 0 0 0 0 0 0 0 0 0 0 0 0 0 0 127 0" result="hardAlpha"/>
<feOffset/>
<feGaussianBlur stdDeviation="5"/>
<feComposite in2="hardAlpha" operator="out"/>
<feColorMatrix type="matrix" values="0 0 0 0 1 0 0 0 0 1 0 0 0 0 1 0 0 0 0.8 0"/>
<feBlend mode="normal" in2="BackgroundImageFix" result="effect1_dropShadow_1205_428"/>
<feBlend mode="normal" in="SourceGraphic" in2="effect1_dropShadow_1205_428" result="shape"/>
</filter>
<filter id="filter26_d_1205_428" x="776" y="384" width="28" height="28" filterUnits="userSpaceOnUse" color-interpolation-filters="sRGB">
<feFlood flood-opacity="0" result="BackgroundImageFix"/>
<feColorMatrix in="SourceAlpha" type="matrix" values="0 0 0 0 0 0 0 0 0 0 0 0 0 0 0 0 0 0 127 0" result="hardAlpha"/>
<feOffset/>
<feGaussianBlur stdDeviation="5"/>
<feComposite in2="hardAlpha" operator="out"/>
<feColorMatrix type="matrix" values="0 0 0 0 1 0 0 0 0 1 0 0 0 0 1 0 0 0 0.8 0"/>
<feBlend mode="normal" in2="BackgroundImageFix" result="effect1_dropShadow_1205_428"/>
<feBlend mode="normal" in="SourceGraphic" in2="effect1_dropShadow_1205_428" result="shape"/>
</filter>
<filter id="filter27_d_1205_428" x="445" y="380" width="28" height="28" filterUnits="userSpaceOnUse" color-interpolation-filters="sRGB">
<feFlood flood-opacity="0" result="BackgroundImageFix"/>
<feColorMatrix in="SourceAlpha" type="matrix" values="0 0 0 0 0 0 0 0 0 0 0 0 0 0 0 0 0 0 127 0" result="hardAlpha"/>
<feOffset/>
<feGaussianBlur stdDeviation="5"/>
<feComposite in2="hardAlpha" operator="out"/>
<feColorMatrix type="matrix" values="0 0 0 0 1 0 0 0 0 1 0 0 0 0 1 0 0 0 0.8 0"/>
<feBlend mode="normal" in2="BackgroundImageFix" result="effect1_dropShadow_1205_428"/>
<feBlend mode="normal" in="SourceGraphic" in2="effect1_dropShadow_1205_428" result="shape"/>
</filter>
<filter id="filter28_d_1205_428" x="618" y="215" width="28" height="28" filterUnits="userSpaceOnUse" color-interpolation-filters="sRGB">
<feFlood flood-opacity="0" result="BackgroundImageFix"/>
<feColorMatrix in="SourceAlpha" type="matrix" values="0 0 0 0 0 0 0 0 0 0 0 0 0 0 0 0 0 0 127 0" result="hardAlpha"/>
<feOffset/>
<feGaussianBlur stdDeviation="5"/>
<feComposite in2="hardAlpha" operator="out"/>
<feColorMatrix type="matrix" values="0 0 0 0 1 0 0 0 0 1 0 0 0 0 1 0 0 0 0.8 0"/>
<feBlend mode="normal" in2="BackgroundImageFix" result="effect1_dropShadow_1205_428"/>
<feBlend mode="normal" in="SourceGraphic" in2="effect1_dropShadow_1205_428" result="shape"/>
</filter>
<filter id="filter29_d_1205_428" x="222" y="450" width="28" height="28" filterUnits="userSpaceOnUse" color-interpolation-filters="sRGB">
<feFlood flood-opacity="0" result="BackgroundImageFix"/>
<feColorMatrix in="SourceAlpha" type="matrix" values="0 0 0 0 0 0 0 0 0 0 0 0 0 0 0 0 0 0 127 0" result="hardAlpha"/>
<feOffset/>
<feGaussianBlur stdDeviation="5"/>
<feComposite in2="hardAlpha" operator="out"/>
<feColorMatrix type="matrix" values="0 0 0 0 1 0 0 0 0 1 0 0 0 0 1 0 0 0 0.8 0"/>
<feBlend mode="normal" in2="BackgroundImageFix" result="effect1_dropShadow_1205_428"/>
<feBlend mode="normal" in="SourceGraphic" in2="effect1_dropShadow_1205_428" result="shape"/>
</filter>
<filter id="filter30_d_1205_428" x="46" y="560" width="28" height="28" filterUnits="userSpaceOnUse" color-interpolation-filters="sRGB">
<feFlood flood-opacity="0" result="BackgroundImageFix"/>
<feColorMatrix in="SourceAlpha" type="matrix" values="0 0 0 0 0 0 0 0 0 0 0 0 0 0 0 0 0 0 127 0" result="hardAlpha"/>
<feOffset/>
<feGaussianBlur stdDeviation="5"/>
<feComposite in2="hardAlpha" operator="out"/>
<feColorMatrix type="matrix" values="0 0 0 0 1 0 0 0 0 1 0 0 0 0 1 0 0 0 0.8 0"/>
<feBlend mode="normal" in2="BackgroundImageFix" result="effect1_dropShadow_1205_428"/>
<feBlend mode="normal" in="SourceGraphic" in2="effect1_dropShadow_1205_428" result="shape"/>
</filter>
<filter id="filter31_d_1205_428" x="99" y="450" width="28" height="28" filterUnits="userSpaceOnUse" color-interpolation-filters="sRGB">
<feFlood flood-opacity="0" result="BackgroundImageFix"/>
<feColorMatrix in="SourceAlpha" type="matrix" values="0 0 0 0 0 0 0 0 0 0 0 0 0 0 0 0 0 0 127 0" result="hardAlpha"/>
<feOffset/>
<feGaussianBlur stdDeviation="5"/>
<feComposite in2="hardAlpha" operator="out"/>
<feColorMatrix type="matrix" values="0 0 0 0 1 0 0 0 0 1 0 0 0 0 1 0 0 0 0.8 0"/>
<feBlend mode="normal" in2="BackgroundImageFix" result="effect1_dropShadow_1205_428"/>
<feBlend mode="normal" in="SourceGraphic" in2="effect1_dropShadow_1205_428" result="shape"/>
</filter>
<linearGradient id="paint0_linear_1205_428" x1="358.14" y1="435.393" x2="654" y2="828" gradientUnits="userSpaceOnUse">
<stop stop-color="#A5A5A5"/>
<stop offset="1" stop-color="#282828"/>
</linearGradient>
<linearGradient id="paint1_linear_1205_428" x1="1061" y1="400" x2="1692" y2="1140" gradientUnits="userSpaceOnUse">
<stop stop-color="#A5A5A5"/>
<stop offset="0.317708" stop-color="#787878"/>
<stop offset="1" stop-color="#282828"/>
</linearGradient>
<linearGradient id="paint2_linear_1205_428" x1="1216" y1="476" x2="858" y2="667" gradientUnits="userSpaceOnUse">
<stop stop-color="#181D22"/>
<stop offset="1" stop-color="#181D22" stop-opacity="0"/>
</linearGradient>
<clipPath id="clip0_1205_428">
<rect width="1920" height="1080" fill="white"/>
</clipPath>
</defs>
</svg>
